<svg xmlns="http://www.w3.org/2000/svg" xmlns:xlink="http://www.w3.org/1999/xlink" width="1920" zoomAndPan="magnify" viewBox="0 0 1440 1439.999935" height="1920" preserveAspectRatio="xMidYMid meet" version="1.2"><defs/><g id="5d2964154b"><rect x="0" width="1440" y="0" height="1439.999935" style="fill:#ffffff;fill-opacity:1;stroke:none;"/><rect x="0" width="1440" y="0" height="1439.999935" style="fill:#ffffff;fill-opacity:1;stroke:none;"/><path style=" stroke:none;fill-rule:nonzero;fill:#000000;fill-opacity:1;" d="M 608.683594 958.261719 L 650.824219 958.261719 L 584.03125 1131.976562 C 580.773438 1140.125 574.136719 1144.578125 565.289062 1144.578125 C 563.894531 1144.578125 562.378906 1144.460938 560.925781 1143.851562 L 560.109375 1143.851562 L 559.207031 1143.589844 C 550.769531 1141.085938 546.140625 1134.363281 546.140625 1124.703125 C 546.140625 1123.101562 546.140625 1122.695312 556.734375 1094.375 C 563.398438 1076.652344 572.160156 1053.515625 583.566406 1023.714844 C 587.089844 1014.488281 590.8125 1004.742188 594.742188 994.496094 C 598.671875 984.253906 602.804688 973.511719 607.082031 962.394531 Z M 476.496094 897.960938 L 433.308594 897.960938 L 433.308594 105.699219 C 420.066406 111.898438 407.058594 118.507812 394.28125 125.492188 L 394.28125 917.839844 C 394.28125 929.832031 401.414062 937.019531 413.375 937.019531 L 816.96875 937.019531 C 829.511719 937.019531 836.992188 929.714844 836.992188 917.492188 C 836.992188 905.265625 829.511719 897.992188 816.96875 897.992188 L 516.253906 897.992188 L 516.253906 73.398438 C 502.894531 77.617188 489.625 82.242188 476.496094 87.308594 Z M 1019.144531 923.953125 C 1004.59375 887.691406 989.140625 848.925781 973.222656 808.703125 C 957.710938 769.472656 941.964844 730.097656 926.425781 691.683594 C 910.652344 652.714844 896.507812 617.09375 884.34375 585.835938 C 871.886719 553.882812 861.148438 526.671875 852.417969 504.960938 C 843.714844 483.335938 838.15625 469.28125 835.945312 463.109375 C 833.324219 455.425781 826.953125 451.179688 817.988281 451.179688 C 809.257812 451.179688 802.652344 455.253906 799.363281 462.644531 L 799.1875 463.050781 C 796.949219 469.25 791.535156 483.394531 783.09375 505.046875 C 774.246094 527.71875 763.828125 554.929688 752.011719 585.925781 C 739.878906 617.792969 726.140625 653.414062 711.183594 691.800781 C 696.078125 730.535156 680.914062 769.910156 666.101562 808.851562 C 658.039062 829.980469 650.066406 850.816406 642.179688 871.332031 L 638.863281 880.035156 L 680.914062 880.035156 L 776.402344 631.703125 L 1040.042969 1317.679688 C 1052.003906 1311.277344 1063.761719 1304.496094 1075.316406 1297.398438 C 1038.644531 1197.371094 987.425781 1057.53125 980.933594 1040.652344 C 971.679688 1016.554688 960.796875 988.472656 948.574219 957.246094 C 936.292969 925.8125 923.542969 893.453125 910.710938 861.0625 C 897.644531 828.144531 884.78125 795.375 872.441406 763.683594 C 860.128906 732.105469 848.402344 702.597656 837.515625 675.9375 C 826.75 649.570312 817.667969 627.308594 810.304688 609.148438 C 803.902344 593.460938 799.507812 582.957031 796.890625 577.28125 L 818.074219 522.742188 L 1108.636719 1275.511719 C 1120.132812 1267.449219 1131.367188 1259.039062 1142.367188 1250.25 C 1106.714844 1153.398438 1065.246094 1040.683594 1058.753906 1023.976562 C 1047.636719 995.425781 1034.308594 961.785156 1019.144531 923.953125 Z M 1383.484375 439.769531 C 1347.21875 354.035156 1295.300781 277.027344 1229.179688 210.90625 C 1163.058594 144.785156 1086.054688 92.867188 1000.316406 56.605469 C 911.523438 19.03125 817.230469 0 720.027344 0 C 650.300781 0 582.054688 9.808594 516.253906 29.21875 L 516.253906 73.398438 C 581.851562 52.703125 650.152344 42.226562 720.058594 42.226562 C 811.558594 42.226562 900.320312 60.15625 983.875 95.484375 C 1064.574219 129.625 1137.070312 178.488281 1199.320312 240.738281 C 1261.570312 302.988281 1310.433594 375.484375 1344.574219 456.183594 C 1379.902344 539.738281 1397.832031 628.5 1397.832031 720 C 1397.832031 811.5 1379.902344 900.261719 1344.574219 983.816406 C 1310.433594 1064.515625 1261.570312 1137.011719 1199.320312 1199.261719 C 1181.191406 1217.394531 1162.15625 1234.390625 1142.339844 1250.222656 C 1147.632812 1264.570312 1152.785156 1278.597656 1157.675781 1291.867188 C 1182.730469 1272.660156 1206.597656 1251.707031 1229.179688 1229.121094 C 1295.300781 1163 1347.21875 1085.996094 1383.484375 1000.257812 C 1421.023438 911.464844 1440.085938 817.171875 1440.085938 719.972656 C 1440.085938 622.855469 1421.023438 528.535156 1383.484375 439.769531 Z M 983.875 1344.574219 C 900.320312 1379.902344 811.558594 1397.832031 720.058594 1397.832031 C 628.558594 1397.832031 539.796875 1379.902344 456.242188 1344.574219 C 375.539062 1310.433594 303.046875 1261.570312 240.796875 1199.320312 C 178.546875 1137.070312 129.652344 1064.574219 95.542969 983.875 C 60.214844 900.320312 42.285156 811.558594 42.285156 720.058594 C 42.285156 628.558594 60.214844 539.796875 95.542969 456.242188 C 129.679688 375.539062 178.546875 303.046875 240.796875 240.796875 C 286.660156 194.929688 338.113281 156.308594 394.28125 125.519531 L 394.28125 77.734375 C 326.621094 112.046875 265.097656 156.6875 210.90625 210.90625 C 144.785156 277.027344 92.867188 354.035156 56.605469 439.769531 C 19.03125 528.535156 0 622.855469 0 720.027344 C 0 817.230469 19.03125 911.523438 56.605469 1000.316406 C 92.867188 1086.054688 144.785156 1163.058594 210.90625 1229.179688 C 277.027344 1295.300781 354.035156 1347.21875 439.769531 1383.484375 C 528.5625 1421.023438 622.855469 1440.085938 720.058594 1440.085938 C 817.261719 1440.085938 911.554688 1421.054688 1000.347656 1383.484375 C 1019.089844 1375.566406 1037.421875 1366.863281 1055.320312 1357.464844 L 1040.042969 1317.738281 C 1021.765625 1327.488281 1003.050781 1336.453125 983.875 1344.574219 Z M 516.253906 73.398438 L 516.253906 29.21875 C 502.894531 33.148438 489.652344 37.511719 476.496094 42.226562 L 476.496094 87.308594 C 489.625 82.242188 502.894531 77.617188 516.253906 73.398438 Z M 433.308594 105.699219 L 433.308594 59.371094 C 420.097656 65.101562 407.058594 71.242188 394.28125 77.734375 L 394.28125 125.492188 C 407.03125 118.476562 420.039062 111.898438 433.308594 105.699219 Z M 433.308594 105.699219 "/><path style=" stroke:none;fill-rule:nonzero;fill:#000000;fill-opacity:1;" d="M 1040.011719 1317.738281 L 1055.292969 1357.464844 C 1067.078125 1351.265625 1078.691406 1344.71875 1090.097656 1337.878906 C 1085.585938 1325.566406 1080.582031 1311.917969 1075.285156 1297.453125 C 1063.730469 1304.554688 1051.972656 1311.308594 1040.011719 1317.738281 Z M 1040.011719 1317.738281 "/><path style=" stroke:none;fill-rule:nonzero;fill:#000000;fill-opacity:1;" d="M 1108.609375 1275.539062 L 1124.265625 1316.082031 C 1135.613281 1308.367188 1146.761719 1300.308594 1157.675781 1291.953125 C 1152.785156 1278.65625 1147.632812 1264.65625 1142.339844 1250.308594 C 1131.335938 1259.070312 1120.101562 1267.480469 1108.609375 1275.539062 Z M 1108.609375 1275.539062 "/><g style="fill:#000000;fill-opacity:1;"><g transform="translate(699.410132, 726.374917)"><path style="stroke:none" d="M 2.984375 0.109375 C 2.828125 0.117188 2.613281 0.132812 2.34375 0.15625 C 2.082031 0.1875 1.828125 0.179688 1.578125 0.140625 C 1.335938 0.109375 1.164062 0.015625 1.0625 -0.140625 C 0.957031 -0.304688 0.9375 -0.429688 1 -0.515625 C 1.0625 -0.609375 1.164062 -0.675781 1.3125 -0.71875 C 1.457031 -0.769531 1.601562 -0.804688 1.75 -0.828125 C 1.90625 -0.859375 2.019531 -0.882812 2.09375 -0.90625 C 2.3125 -0.957031 2.460938 -1.066406 2.546875 -1.234375 C 2.640625 -1.410156 2.695312 -1.609375 2.71875 -1.828125 C 2.738281 -2.046875 2.742188 -2.242188 2.734375 -2.421875 C 2.722656 -2.585938 2.71875 -2.75 2.71875 -2.90625 C 2.71875 -3.070312 2.734375 -3.234375 2.765625 -3.390625 C 2.796875 -3.566406 2.820312 -3.734375 2.84375 -3.890625 C 2.863281 -4.054688 2.867188 -4.226562 2.859375 -4.40625 C 2.847656 -4.5625 2.828125 -4.710938 2.796875 -4.859375 C 2.765625 -5.015625 2.75 -5.171875 2.75 -5.328125 L 2.75 -6.40625 C 2.738281 -6.769531 2.738281 -7.132812 2.75 -7.5 C 2.769531 -7.875 2.796875 -8.242188 2.828125 -8.609375 C 2.847656 -8.785156 2.847656 -8.957031 2.828125 -9.125 C 2.804688 -9.289062 2.734375 -9.441406 2.609375 -9.578125 C 2.503906 -9.710938 2.378906 -9.832031 2.234375 -9.9375 C 2.085938 -10.039062 1.9375 -10.101562 1.78125 -10.125 C 1.65625 -10.144531 1.519531 -10.171875 1.375 -10.203125 C 1.226562 -10.234375 1.144531 -10.332031 1.125 -10.5 C 1.101562 -10.675781 1.175781 -10.785156 1.34375 -10.828125 C 1.519531 -10.878906 1.675781 -10.90625 1.8125 -10.90625 C 2.1875 -10.925781 2.5625 -10.929688 2.9375 -10.921875 C 3.3125 -10.921875 3.6875 -10.925781 4.0625 -10.9375 C 4.488281 -10.925781 4.929688 -10.925781 5.390625 -10.9375 C 5.847656 -10.945312 6.296875 -10.921875 6.734375 -10.859375 C 7.179688 -10.804688 7.601562 -10.671875 8 -10.453125 C 8.28125 -10.296875 8.488281 -10.066406 8.625 -9.765625 C 8.769531 -9.472656 8.898438 -9.179688 9.015625 -8.890625 C 9.117188 -8.597656 9.144531 -8.296875 9.09375 -7.984375 C 9.039062 -7.679688 8.941406 -7.390625 8.796875 -7.109375 C 8.734375 -6.972656 8.664062 -6.832031 8.59375 -6.6875 C 8.519531 -6.550781 8.441406 -6.421875 8.359375 -6.296875 C 8.253906 -6.160156 8.175781 -6.046875 8.125 -5.953125 C 8.082031 -5.867188 8.140625 -5.757812 8.296875 -5.625 C 8.535156 -5.445312 8.753906 -5.242188 8.953125 -5.015625 C 9.160156 -4.796875 9.300781 -4.539062 9.375 -4.25 C 9.476562 -3.925781 9.554688 -3.597656 9.609375 -3.265625 C 9.671875 -2.941406 9.640625 -2.609375 9.515625 -2.265625 C 9.421875 -1.984375 9.304688 -1.710938 9.171875 -1.453125 C 9.046875 -1.203125 8.863281 -0.972656 8.625 -0.765625 C 8.351562 -0.535156 8.082031 -0.351562 7.8125 -0.21875 C 7.539062 -0.09375 7.222656 -0.046875 6.859375 -0.078125 C 6.703125 -0.0976562 6.539062 -0.125 6.375 -0.15625 C 6.21875 -0.195312 6.066406 -0.210938 5.921875 -0.203125 C 5.765625 -0.203125 5.601562 -0.179688 5.4375 -0.140625 C 5.28125 -0.109375 5.125 -0.0820312 4.96875 -0.0625 C 4.644531 -0.0195312 4.316406 0.00390625 3.984375 0.015625 C 3.660156 0.0351562 3.328125 0.0664062 2.984375 0.109375 Z M 5.46875 -6.125 C 5.757812 -6.132812 6.046875 -6.160156 6.328125 -6.203125 C 6.617188 -6.253906 6.878906 -6.378906 7.109375 -6.578125 C 7.316406 -6.753906 7.476562 -6.96875 7.59375 -7.21875 C 7.71875 -7.476562 7.789062 -7.742188 7.8125 -8.015625 C 7.851562 -8.660156 7.65625 -9.21875 7.21875 -9.6875 C 7.007812 -9.894531 6.769531 -10.03125 6.5 -10.09375 C 6.238281 -10.164062 5.972656 -10.207031 5.703125 -10.21875 C 5.398438 -10.238281 5.109375 -10.222656 4.828125 -10.171875 C 4.546875 -10.128906 4.28125 -10.019531 4.03125 -9.84375 C 3.726562 -9.632812 3.578125 -9.40625 3.578125 -9.15625 C 3.585938 -8.90625 3.625 -8.632812 3.6875 -8.34375 C 3.738281 -8.039062 3.765625 -7.726562 3.765625 -7.40625 C 3.765625 -7.09375 3.867188 -6.8125 4.078125 -6.5625 C 4.234375 -6.363281 4.445312 -6.238281 4.71875 -6.1875 C 4.988281 -6.132812 5.238281 -6.113281 5.46875 -6.125 Z M 5.109375 -0.65625 C 5.378906 -0.570312 5.625 -0.53125 5.84375 -0.53125 C 6.070312 -0.53125 6.316406 -0.597656 6.578125 -0.734375 C 6.804688 -0.847656 7.054688 -0.972656 7.328125 -1.109375 C 7.597656 -1.242188 7.816406 -1.410156 7.984375 -1.609375 C 8.160156 -1.847656 8.273438 -2.109375 8.328125 -2.390625 C 8.378906 -2.671875 8.410156 -2.953125 8.421875 -3.234375 C 8.429688 -3.765625 8.242188 -4.203125 7.859375 -4.546875 C 7.484375 -4.890625 7.050781 -5.101562 6.5625 -5.1875 C 6.289062 -5.226562 6.007812 -5.253906 5.71875 -5.265625 C 5.4375 -5.285156 5.15625 -5.273438 4.875 -5.234375 C 4.769531 -5.222656 4.640625 -5.207031 4.484375 -5.1875 C 4.335938 -5.164062 4.21875 -5.128906 4.125 -5.078125 C 4.019531 -5.015625 3.941406 -4.925781 3.890625 -4.8125 C 3.835938 -4.695312 3.789062 -4.585938 3.75 -4.484375 C 3.632812 -4.242188 3.597656 -4.019531 3.640625 -3.8125 C 3.679688 -3.601562 3.707031 -3.382812 3.71875 -3.15625 C 3.738281 -2.875 3.75 -2.609375 3.75 -2.359375 C 3.75 -2.109375 3.8125 -1.847656 3.9375 -1.578125 C 4.050781 -1.367188 4.21875 -1.179688 4.4375 -1.015625 C 4.65625 -0.859375 4.878906 -0.738281 5.109375 -0.65625 Z M 5.109375 -0.65625 "/></g></g><g style="fill:#000000;fill-opacity:1;"><g transform="translate(710.367494, 726.374917)"><path style="stroke:none" d="M 3.578125 -0.15625 C 3.335938 -0.238281 3.078125 -0.3125 2.796875 -0.375 C 2.523438 -0.445312 2.28125 -0.566406 2.0625 -0.734375 C 1.863281 -0.890625 1.695312 -1.097656 1.5625 -1.359375 C 1.425781 -1.617188 1.304688 -1.859375 1.203125 -2.078125 C 1.078125 -2.347656 1 -2.617188 0.96875 -2.890625 C 0.945312 -3.160156 0.925781 -3.4375 0.90625 -3.71875 C 0.894531 -4.289062 0.925781 -4.878906 1 -5.484375 C 1.082031 -6.085938 1.296875 -6.628906 1.640625 -7.109375 C 1.828125 -7.347656 2.046875 -7.539062 2.296875 -7.6875 C 2.554688 -7.832031 2.820312 -7.972656 3.09375 -8.109375 C 3.351562 -8.234375 3.617188 -8.328125 3.890625 -8.390625 C 4.160156 -8.460938 4.441406 -8.457031 4.734375 -8.375 C 4.878906 -8.320312 5.023438 -8.269531 5.171875 -8.21875 C 5.316406 -8.175781 5.460938 -8.140625 5.609375 -8.109375 C 5.753906 -8.066406 5.890625 -8.023438 6.015625 -7.984375 C 6.140625 -7.941406 6.265625 -7.878906 6.390625 -7.796875 C 6.628906 -7.617188 6.804688 -7.394531 6.921875 -7.125 C 7.035156 -6.851562 7.148438 -6.582031 7.265625 -6.3125 C 7.492188 -5.78125 7.644531 -5.210938 7.71875 -4.609375 C 7.789062 -4.003906 7.742188 -3.414062 7.578125 -2.84375 C 7.492188 -2.539062 7.40625 -2.226562 7.3125 -1.90625 C 7.21875 -1.582031 7.054688 -1.296875 6.828125 -1.046875 C 6.628906 -0.804688 6.375 -0.613281 6.0625 -0.46875 C 5.75 -0.320312 5.441406 -0.222656 5.140625 -0.171875 C 4.859375 -0.078125 4.597656 -0.0234375 4.359375 -0.015625 C 4.117188 -0.015625 3.859375 -0.0625 3.578125 -0.15625 Z M 4.390625 -0.671875 C 4.535156 -0.679688 4.675781 -0.6875 4.8125 -0.6875 C 4.957031 -0.6875 5.097656 -0.71875 5.234375 -0.78125 C 5.390625 -0.851562 5.523438 -0.957031 5.640625 -1.09375 C 5.753906 -1.226562 5.863281 -1.359375 5.96875 -1.484375 C 6.15625 -1.722656 6.3125 -1.96875 6.4375 -2.21875 C 6.5625 -2.476562 6.628906 -2.757812 6.640625 -3.0625 C 6.660156 -3.476562 6.671875 -3.910156 6.671875 -4.359375 C 6.679688 -4.804688 6.632812 -5.234375 6.53125 -5.640625 C 6.425781 -6.054688 6.207031 -6.425781 5.875 -6.75 C 5.632812 -6.988281 5.390625 -7.164062 5.140625 -7.28125 C 4.890625 -7.394531 4.59375 -7.441406 4.25 -7.421875 C 4 -7.410156 3.765625 -7.363281 3.546875 -7.28125 C 3.335938 -7.207031 3.140625 -7.078125 2.953125 -6.890625 C 2.722656 -6.671875 2.53125 -6.441406 2.375 -6.203125 C 2.21875 -5.960938 2.109375 -5.675781 2.046875 -5.34375 C 1.984375 -5.007812 1.960938 -4.695312 1.984375 -4.40625 C 2.003906 -4.113281 2.050781 -3.804688 2.125 -3.484375 C 2.164062 -3.316406 2.191406 -3.144531 2.203125 -2.96875 C 2.222656 -2.789062 2.253906 -2.617188 2.296875 -2.453125 C 2.347656 -2.273438 2.410156 -2.117188 2.484375 -1.984375 C 2.554688 -1.847656 2.644531 -1.703125 2.75 -1.546875 C 2.84375 -1.410156 2.9375 -1.269531 3.03125 -1.125 C 3.132812 -0.988281 3.269531 -0.882812 3.4375 -0.8125 C 3.582031 -0.738281 3.734375 -0.695312 3.890625 -0.6875 C 4.054688 -0.6875 4.222656 -0.679688 4.390625 -0.671875 Z M 4.390625 -0.671875 "/></g></g><g style="fill:#000000;fill-opacity:1;"><g transform="translate(719.261384, 726.374917)"><path style="stroke:none" d="M 5.15625 0.046875 C 4.882812 0.171875 4.617188 0.191406 4.359375 0.109375 C 4.097656 0.0234375 3.828125 -0.046875 3.546875 -0.109375 C 3.253906 -0.171875 2.976562 -0.257812 2.71875 -0.375 C 2.46875 -0.488281 2.238281 -0.660156 2.03125 -0.890625 C 1.851562 -1.117188 1.726562 -1.351562 1.65625 -1.59375 C 1.59375 -1.832031 1.550781 -2.09375 1.53125 -2.375 C 1.507812 -2.625 1.472656 -2.878906 1.421875 -3.140625 C 1.378906 -3.398438 1.347656 -3.660156 1.328125 -3.921875 C 1.316406 -4.203125 1.335938 -4.476562 1.390625 -4.75 C 1.441406 -5.019531 1.484375 -5.285156 1.515625 -5.546875 C 1.546875 -5.816406 1.59375 -6.078125 1.65625 -6.328125 C 1.71875 -6.578125 1.828125 -6.816406 1.984375 -7.046875 C 2.128906 -7.253906 2.316406 -7.429688 2.546875 -7.578125 C 2.785156 -7.734375 3.023438 -7.867188 3.265625 -7.984375 C 3.546875 -8.128906 3.820312 -8.191406 4.09375 -8.171875 C 4.363281 -8.148438 4.644531 -8.113281 4.9375 -8.0625 C 5.082031 -8.039062 5.21875 -8.015625 5.34375 -7.984375 C 5.46875 -7.960938 5.601562 -7.945312 5.75 -7.9375 C 5.820312 -7.925781 5.890625 -7.914062 5.953125 -7.90625 C 6.023438 -7.90625 6.09375 -7.894531 6.15625 -7.875 C 6.21875 -7.863281 6.28125 -7.835938 6.34375 -7.796875 C 6.40625 -7.753906 6.46875 -7.726562 6.53125 -7.71875 C 6.644531 -7.71875 6.71875 -7.757812 6.75 -7.84375 C 6.78125 -7.9375 6.820312 -8.019531 6.875 -8.09375 C 6.9375 -8.207031 7.007812 -8.304688 7.09375 -8.390625 C 7.175781 -8.484375 7.207031 -8.597656 7.1875 -8.734375 C 7.175781 -8.878906 7.125 -9.007812 7.03125 -9.125 C 6.945312 -9.25 6.863281 -9.363281 6.78125 -9.46875 C 6.71875 -9.550781 6.660156 -9.648438 6.609375 -9.765625 C 6.554688 -9.890625 6.476562 -9.972656 6.375 -10.015625 C 6.25 -10.066406 6.117188 -10.097656 5.984375 -10.109375 C 5.859375 -10.128906 5.773438 -10.226562 5.734375 -10.40625 C 5.679688 -10.550781 5.707031 -10.660156 5.8125 -10.734375 C 5.914062 -10.804688 6.023438 -10.851562 6.140625 -10.875 C 6.421875 -10.925781 6.726562 -10.921875 7.0625 -10.859375 C 7.394531 -10.796875 7.644531 -10.632812 7.8125 -10.375 C 7.925781 -10.175781 7.96875 -9.976562 7.9375 -9.78125 C 7.90625 -9.582031 7.847656 -9.382812 7.765625 -9.1875 C 7.691406 -8.988281 7.65625 -8.789062 7.65625 -8.59375 C 7.65625 -8.445312 7.679688 -8.300781 7.734375 -8.15625 C 7.796875 -8.007812 7.847656 -7.863281 7.890625 -7.71875 C 7.929688 -7.5625 7.957031 -7.40625 7.96875 -7.25 C 7.976562 -7.101562 7.984375 -6.945312 7.984375 -6.78125 C 7.972656 -6.488281 7.945312 -6.195312 7.90625 -5.90625 C 7.863281 -5.613281 7.859375 -5.320312 7.890625 -5.03125 C 7.921875 -4.738281 7.941406 -4.441406 7.953125 -4.140625 C 7.972656 -3.835938 7.960938 -3.539062 7.921875 -3.25 C 7.910156 -3.113281 7.890625 -2.972656 7.859375 -2.828125 C 7.835938 -2.691406 7.816406 -2.550781 7.796875 -2.40625 C 7.785156 -2.320312 7.785156 -2.191406 7.796875 -2.015625 C 7.804688 -1.847656 7.816406 -1.671875 7.828125 -1.484375 C 7.847656 -1.296875 7.867188 -1.128906 7.890625 -0.984375 C 7.929688 -0.773438 7.878906 -0.617188 7.734375 -0.515625 C 7.597656 -0.421875 7.453125 -0.375 7.296875 -0.375 C 7.148438 -0.382812 7.0625 -0.441406 7.03125 -0.546875 C 6.976562 -0.753906 6.898438 -0.875 6.796875 -0.90625 C 6.703125 -0.9375 6.609375 -0.910156 6.515625 -0.828125 C 6.410156 -0.753906 6.296875 -0.679688 6.171875 -0.609375 C 6.054688 -0.546875 5.941406 -0.472656 5.828125 -0.390625 C 5.710938 -0.304688 5.597656 -0.222656 5.484375 -0.140625 C 5.378906 -0.0664062 5.269531 -0.00390625 5.15625 0.046875 Z M 5.4375 -0.65625 C 5.78125 -0.75 6.039062 -0.953125 6.21875 -1.265625 C 6.394531 -1.578125 6.539062 -1.882812 6.65625 -2.1875 C 6.769531 -2.507812 6.828125 -2.835938 6.828125 -3.171875 C 6.828125 -3.515625 6.828125 -3.847656 6.828125 -4.171875 C 6.847656 -4.460938 6.859375 -4.742188 6.859375 -5.015625 C 6.867188 -5.296875 6.800781 -5.566406 6.65625 -5.828125 C 6.519531 -6.085938 6.335938 -6.351562 6.109375 -6.625 C 5.878906 -6.894531 5.625 -7.097656 5.34375 -7.234375 C 5.082031 -7.367188 4.796875 -7.421875 4.484375 -7.390625 C 4.171875 -7.359375 3.878906 -7.300781 3.609375 -7.21875 C 3.316406 -7.113281 3.070312 -6.921875 2.875 -6.640625 C 2.6875 -6.367188 2.523438 -6.101562 2.390625 -5.84375 C 2.234375 -5.550781 2.140625 -5.242188 2.109375 -4.921875 C 2.078125 -4.609375 2.054688 -4.296875 2.046875 -3.984375 C 2.046875 -3.640625 2.066406 -3.328125 2.109375 -3.046875 C 2.160156 -2.765625 2.28125 -2.472656 2.46875 -2.171875 C 2.550781 -2.035156 2.640625 -1.90625 2.734375 -1.78125 C 2.835938 -1.65625 2.941406 -1.53125 3.046875 -1.40625 C 3.140625 -1.289062 3.234375 -1.164062 3.328125 -1.03125 C 3.421875 -0.90625 3.539062 -0.800781 3.6875 -0.71875 C 3.9375 -0.582031 4.222656 -0.519531 4.546875 -0.53125 C 4.867188 -0.539062 5.164062 -0.582031 5.4375 -0.65625 Z M 8.84375 0.046875 C 8.738281 0.0351562 8.617188 0.00390625 8.484375 -0.046875 C 8.347656 -0.109375 8.257812 -0.191406 8.21875 -0.296875 C 8.164062 -0.453125 8.203125 -0.570312 8.328125 -0.65625 C 8.460938 -0.738281 8.585938 -0.785156 8.703125 -0.796875 C 8.816406 -0.796875 8.941406 -0.757812 9.078125 -0.6875 C 9.222656 -0.613281 9.300781 -0.515625 9.3125 -0.390625 C 9.332031 -0.242188 9.289062 -0.132812 9.1875 -0.0625 C 9.082031 0.0078125 8.96875 0.046875 8.84375 0.046875 Z M 8.84375 0.046875 "/></g></g><g style="fill:#000000;fill-opacity:1;"><g transform="translate(729.466926, 726.374917)"><path style="stroke:none" d="M 3.203125 2.78125 C 2.816406 2.789062 2.46875 2.722656 2.15625 2.578125 C 1.84375 2.441406 1.625 2.171875 1.5 1.765625 C 1.476562 1.648438 1.472656 1.523438 1.484375 1.390625 C 1.492188 1.265625 1.535156 1.148438 1.609375 1.046875 C 1.691406 0.953125 1.800781 0.921875 1.9375 0.953125 C 2.070312 0.972656 2.1875 1.039062 2.28125 1.15625 C 2.375 1.28125 2.460938 1.40625 2.546875 1.53125 C 2.628906 1.65625 2.722656 1.75 2.828125 1.8125 C 3.078125 1.945312 3.320312 1.957031 3.5625 1.84375 C 3.8125 1.738281 4.035156 1.566406 4.234375 1.328125 C 4.429688 1.097656 4.566406 0.882812 4.640625 0.6875 C 4.710938 0.5 4.753906 0.300781 4.765625 0.09375 C 4.785156 -0.113281 4.785156 -0.320312 4.765625 -0.53125 C 4.742188 -0.78125 4.679688 -1.019531 4.578125 -1.25 C 4.484375 -1.488281 4.394531 -1.726562 4.3125 -1.96875 C 4.257812 -2.15625 4.203125 -2.34375 4.140625 -2.53125 C 4.085938 -2.726562 4.019531 -2.914062 3.9375 -3.09375 C 3.84375 -3.28125 3.742188 -3.46875 3.640625 -3.65625 C 3.535156 -3.84375 3.453125 -4.035156 3.390625 -4.234375 C 3.265625 -4.640625 3.148438 -5.035156 3.046875 -5.421875 C 2.953125 -5.804688 2.769531 -6.175781 2.5 -6.53125 C 2.375 -6.675781 2.238281 -6.828125 2.09375 -6.984375 C 1.957031 -7.140625 1.796875 -7.257812 1.609375 -7.34375 C 1.472656 -7.414062 1.351562 -7.519531 1.25 -7.65625 C 1.144531 -7.800781 1.179688 -7.941406 1.359375 -8.078125 C 1.503906 -8.179688 1.695312 -8.238281 1.9375 -8.25 C 2.175781 -8.257812 2.382812 -8.269531 2.5625 -8.28125 C 2.769531 -8.289062 2.988281 -8.304688 3.21875 -8.328125 C 3.445312 -8.347656 3.671875 -8.332031 3.890625 -8.28125 C 4.054688 -8.25 4.195312 -8.171875 4.3125 -8.046875 C 4.4375 -7.921875 4.429688 -7.765625 4.296875 -7.578125 C 4.222656 -7.492188 4.140625 -7.441406 4.046875 -7.421875 C 3.953125 -7.410156 3.863281 -7.375 3.78125 -7.3125 C 3.6875 -7.25 3.632812 -7.179688 3.625 -7.109375 C 3.625 -7.046875 3.613281 -6.960938 3.59375 -6.859375 C 3.570312 -6.660156 3.5625 -6.484375 3.5625 -6.328125 C 3.570312 -6.171875 3.628906 -6.003906 3.734375 -5.828125 C 3.835938 -5.617188 3.945312 -5.410156 4.0625 -5.203125 C 4.1875 -5.003906 4.289062 -4.796875 4.375 -4.578125 C 4.457031 -4.335938 4.515625 -4.097656 4.546875 -3.859375 C 4.578125 -3.617188 4.632812 -3.390625 4.71875 -3.171875 C 4.75 -3.097656 4.785156 -3.023438 4.828125 -2.953125 C 4.878906 -2.878906 4.941406 -2.804688 5.015625 -2.734375 C 5.066406 -2.660156 5.113281 -2.585938 5.15625 -2.515625 C 5.207031 -2.441406 5.257812 -2.363281 5.3125 -2.28125 C 5.414062 -2.164062 5.503906 -2.117188 5.578125 -2.140625 C 5.648438 -2.171875 5.710938 -2.234375 5.765625 -2.328125 C 5.816406 -2.429688 5.859375 -2.523438 5.890625 -2.609375 C 5.972656 -2.804688 6.054688 -2.992188 6.140625 -3.171875 C 6.234375 -3.347656 6.316406 -3.539062 6.390625 -3.75 C 6.441406 -3.957031 6.503906 -4.160156 6.578125 -4.359375 C 6.660156 -4.554688 6.742188 -4.753906 6.828125 -4.953125 C 6.921875 -5.171875 7.015625 -5.382812 7.109375 -5.59375 C 7.210938 -5.8125 7.28125 -6.023438 7.3125 -6.234375 C 7.332031 -6.398438 7.332031 -6.585938 7.3125 -6.796875 C 7.289062 -7.015625 7.21875 -7.175781 7.09375 -7.28125 C 7.019531 -7.34375 6.941406 -7.390625 6.859375 -7.421875 C 6.773438 -7.453125 6.707031 -7.503906 6.65625 -7.578125 C 6.601562 -7.691406 6.585938 -7.800781 6.609375 -7.90625 C 6.640625 -8.007812 6.707031 -8.085938 6.8125 -8.140625 C 6.988281 -8.222656 7.171875 -8.234375 7.359375 -8.171875 C 7.554688 -8.109375 7.742188 -8.066406 7.921875 -8.046875 C 8.140625 -8.023438 8.347656 -8.039062 8.546875 -8.09375 C 8.753906 -8.15625 8.972656 -8.191406 9.203125 -8.203125 C 9.304688 -8.210938 9.421875 -8.203125 9.546875 -8.171875 C 9.679688 -8.148438 9.78125 -8.097656 9.84375 -8.015625 C 9.914062 -7.941406 9.910156 -7.832031 9.828125 -7.6875 C 9.785156 -7.601562 9.71875 -7.535156 9.625 -7.484375 C 9.53125 -7.441406 9.441406 -7.40625 9.359375 -7.375 C 9.234375 -7.332031 9.128906 -7.285156 9.046875 -7.234375 C 8.972656 -7.191406 8.894531 -7.109375 8.8125 -6.984375 C 8.519531 -6.585938 8.28125 -6.148438 8.09375 -5.671875 C 7.90625 -5.191406 7.726562 -4.707031 7.5625 -4.21875 C 7.488281 -3.988281 7.40625 -3.753906 7.3125 -3.515625 C 7.21875 -3.273438 7.125 -3.035156 7.03125 -2.796875 C 6.9375 -2.578125 6.828125 -2.363281 6.703125 -2.15625 C 6.585938 -1.957031 6.484375 -1.75 6.390625 -1.53125 C 6.285156 -1.300781 6.207031 -1.066406 6.15625 -0.828125 C 6.101562 -0.597656 6.046875 -0.359375 5.984375 -0.109375 C 5.921875 0.128906 5.832031 0.363281 5.71875 0.59375 C 5.601562 0.820312 5.484375 1.050781 5.359375 1.28125 C 5.242188 1.457031 5.125 1.644531 5 1.84375 C 4.882812 2.050781 4.738281 2.226562 4.5625 2.375 C 4.351562 2.53125 4.132812 2.628906 3.90625 2.671875 C 3.675781 2.722656 3.441406 2.757812 3.203125 2.78125 Z M 3.203125 2.78125 "/></g></g></g></svg>